<?xml version="1.0" encoding="UTF-8"?>
<svg width="200px" height="46px" viewBox="0 0 200 46" version="1.1" xmlns="http://www.w3.org/2000/svg" xmlns:xlink="http://www.w3.org/1999/xlink">
    <!-- Generator: Sketch 57.1 (83088) - https://sketch.com -->
    <title>nxr logo</title>
    <desc>Created with Sketch.</desc>
    <g id="0.0-Startseite" stroke="none" stroke-width="1" fill="none" fill-rule="evenodd">
        <g id="Test-desktop" transform="translate(-100.000000, -47.000000)" fill="#97C227">
            <g id="Header/120px" transform="translate(0.000000, -0.000000)">
                <g id="nxr-logo" transform="translate(100.000000, 47.000000)">
                    <path d="M195.222782,14.3572544 C195.222782,14.3572544 191.012591,14.3569852 188.451391,14.3569852 C184.539692,14.3569852 182.374412,16.7985373 182.374412,21.6811031 L182.374682,40.3059115 L171.95122,40.3059115 L171.95122,20.8469757 C171.95122,15.862129 173.201053,12.1590231 175.700449,9.7381964 C178.199575,7.3171005 181.441692,6.10695629 185.425451,6.10695629 L200,6.10695629 L195.222782,14.3572544 Z" id="Fill-1"></path>
                    <path d="M50.871371,20.0450117 C51.1139198,15.3092671 53.4697285,12.9403371 57.9411907,12.9403371 C62.4126529,12.9403371 64.7487811,15.3092671 64.951437,20.0450117 L50.871371,20.0450117 Z M70.9462761,10.4267698 C67.8375554,7.54698228 63.507846,6.10695629 57.9560841,6.10695629 C52.4048541,6.10695629 48.0650384,7.58717397 44.9369032,10.5473449 C41.8074382,13.5077803 40.2439024,17.7424509 40.2439024,23.2513568 C40.2439024,28.7605271 41.7978639,32.9803902 44.9060527,35.9106818 C48.0150393,38.8412378 52.3553869,40.3059115 57.9268293,40.3059115 C68.9681202,40.3254218 74.5134992,35.2803069 75.0584362,29.8295732 L68.1005826,29.8295732 C66.6471512,29.849669 65.4250987,30.4620635 64.4368186,31.6662277 C63.4466769,32.8703919 61.6092099,33.4722096 58.9249496,33.4722096 C56.2409553,33.4722096 54.2880649,32.9103192 53.0670762,31.7865384 C51.8450237,30.6627575 51.1333344,28.8660303 50.9314763,26.3971499 L75.6097561,26.3982076 L75.6097561,22.814801 C75.6097561,17.4365181 74.0547309,13.3070862 70.9462761,10.4267698 L70.9462761,10.4267698 Z" id="Fill-3"></path>
                    <path d="M90.1084247,8.75527794 C88.9185466,6.99069919 87.3465586,6.10748485 85.3919295,6.10748485 L76.4488578,6.10695629 L88.1609652,22.5653464 L75.6097561,39.0845203 L84.6051389,39.0845203 C86.4596599,39.0845203 88.021823,38.2018345 89.2910971,36.4367272 L99.9992034,22.5967954 L100,22.5960026 L90.1084247,8.75527794 Z" id="Fill-5"></path>
                    <path d="M108.620376,8.73466996 C107.432187,6.98382232 105.862429,6.10748073 103.910573,6.10748073 L94.7746887,6.10695629 L106.470445,22.437275 L89.0243902,45.1914766 L98.2122461,45.1914766 C100.064136,45.1914766 101.623818,44.3156594 102.891556,42.5645496 L118.291887,22.4684793 L118.292683,22.4676926 L108.620376,8.73466996 Z" id="Fill-7"></path>
                    <path d="M35.3658537,20.8469757 C35.3658537,15.862129 34.1160882,12.1590231 31.6170969,9.73846556 C29.1181057,7.3171005 25.8764337,6.10695629 21.8926206,6.10695629 L0.000809608395,6.10695629 L0,40.3059115 L10.6320473,40.3059115 L10.6323172,13.5233961 C10.6323172,13.5233961 16.3055131,13.5228578 18.8665743,13.5228578 C22.7780623,13.5228578 24.734616,15.9644099 24.734616,20.8469757 L24.7340762,40.3059115 L35.3658537,40.3059115 L35.3658537,20.8469757 Z" id="Fill-9"></path>
                    <path d="M120.505031,26.8706077 L114.634146,34.3121146 L116.423233,36.5456562 C117.684937,38.2382322 119.442613,39.0845203 121.285546,39.0845203 L130.487805,39.0845203 L120.505031,26.8706077 Z" id="Fill-12"></path>
                    <path d="M134.146341,0 L125.053523,0 C123.114789,0 121.447899,0.817497847 120.267537,2.63758225 L114.634146,10.7640397 L120.539382,19.5422601 L134.146341,0 Z" id="Fill-14"></path>
                    <path d="M156.442256,30.7515753 C153.512689,32.5570349 150.470851,33.4604112 147.316472,33.4604112 C145.738473,33.4604112 144.520496,33.1096819 143.660113,32.4069016 C142.79973,31.70465 142.368998,30.8121005 142.368998,29.728989 C142.368998,28.6453489 142.784347,27.762843 143.613693,27.0806783 C144.44277,26.3985137 145.574385,26.0570349 147.008537,26.0570349 L156.442256,26.0570349 L156.442256,30.7515753 Z M162.648458,9.31162367 C159.69865,7.17500255 156.771512,6.10695629 150.488933,6.10695629 C139.284789,6.10695629 133.657483,11.1302889 133.104225,16.5786199 L140.164874,16.5786199 C141.639778,16.5585329 142.879885,15.9464084 143.883035,14.742775 C144.887805,13.5391416 146.752149,12.9373249 149.476066,12.9373249 C152.199714,12.9373249 153.444139,13.4989676 154.682896,14.6225174 C155.380271,15.2542003 155.90816,16.1057828 156.276279,17.1648428 C156.383152,17.7788174 156.442256,18.4609821 156.442256,19.2266663 L146.27095,19.2266663 C141.990354,19.2266663 138.492416,20.1295235 135.778754,21.9349737 C133.063743,23.7404238 131.707317,26.3282092 131.707317,29.6985943 C131.707317,33.0689793 133.063743,35.6768517 135.778754,37.5222115 C138.492416,39.3686285 141.964715,40.2955373 146.194573,40.3059115 C150.424431,40.3158886 154.157976,39.1878456 157.394399,36.9206591 C157.394399,36.9206591 158.404837,38.5440048 160.626234,39.1624726 C162.383974,39.6519608 165.198572,39.6886988 165.198572,39.6886988 L167.073171,39.6886988 C167.073171,39.6886988 167.073171,38.3952025 167.073171,37.8531182 L167.073171,19.2266663 C167.073171,14.7536114 165.598536,11.4479805 162.648458,9.31162367 L162.648458,9.31162367 Z" id="Fill-16"></path>
                </g>
            </g>
        </g>
    </g>
</svg>